HIERARCHY
ROOT Hips
{
	OFFSET -0.001795 -0.223333 0.028219
	CHANNELS 6 Xposition Yposition Zposition Zrotation Yrotation Xrotation 
	JOINT LeftUpLeg
	{
		OFFSET 0.069520 -0.091406 -0.006815
		CHANNELS 3 Zrotation Yrotation Xrotation
		JOINT LeftLeg
		{
			OFFSET 0.034277 -0.375199 -0.004496
			CHANNELS 3 Zrotation Yrotation Xrotation
			JOINT LeftFoot
			{
				OFFSET -0.013596 -0.397961 -0.043693
				CHANNELS 3 Zrotation Yrotation Xrotation
				JOINT LeftToe
				{
					OFFSET 0.026358 -0.055791 0.119288
					CHANNELS 3 Zrotation Yrotation Xrotation
					End Site
					{
						OFFSET 0.000000 0.000000 0.000000
					}
				}
			}
		}
	}
	JOINT RightUpLeg
	{
		OFFSET -0.067670 -0.090522 -0.004320
		CHANNELS 3 Zrotation Yrotation Xrotation
		JOINT RightLeg
		{
			OFFSET -0.038290 -0.382569 -0.008850
			CHANNELS 3 Zrotation Yrotation Xrotation
			JOINT RightFoot
			{
				OFFSET 0.015774 -0.398415 -0.042312
				CHANNELS 3 Zrotation Yrotation Xrotation
				JOINT RightToe
				{
					OFFSET -0.025372 -0.048144 0.123348
					CHANNELS 3 Zrotation Yrotation Xrotation
					End Site
					{
						OFFSET 0.000000 0.000000 0.000000
					}
				}
			}
		}
	}
	JOINT Spine
	{
		OFFSET -0.002533 0.108963 -0.026696
		CHANNELS 3 Zrotation Yrotation Xrotation
		JOINT Spine1
		{
			OFFSET 0.005487 0.135180 0.001092
			CHANNELS 3 Zrotation Yrotation Xrotation
			JOINT Spine2
			{
				OFFSET 0.001457 0.052922 0.025425
				CHANNELS 3 Zrotation Yrotation Xrotation
				JOINT Neck
				{
					OFFSET -0.002778 0.213870 -0.042857
					CHANNELS 3 Zrotation Yrotation Xrotation
					JOINT Head
					{
						OFFSET 0.005152 0.064970 0.051349
						CHANNELS 3 Zrotation Yrotation Xrotation
						End Site
						{
							OFFSET 0.000000 0.000000 0.000000
						}
					}
				}
				JOINT LeftShoulder
				{
					OFFSET 0.078845 0.121749 -0.034090
					CHANNELS 3 Zrotation Yrotation Xrotation
					JOINT LeftArm
					{
						OFFSET 0.090977 0.030469 -0.008868
						CHANNELS 3 Zrotation Yrotation Xrotation
						JOINT LeftForeArm
						{
							OFFSET 0.259612 -0.012772 -0.027456
							CHANNELS 3 Zrotation Yrotation Xrotation
							JOINT LeftHand
							{
								OFFSET 0.249234 0.008986 -0.001171
								CHANNELS 3 Zrotation Yrotation Xrotation
								End Site
								{
									OFFSET 0.000000 0.000000 0.000000
								}
							}
						}
					}
				}
				JOINT RightShoulder
				{
					OFFSET -0.081759 0.118833 -0.038615
					CHANNELS 3 Zrotation Yrotation Xrotation
					JOINT RightArm
					{
						OFFSET -0.096012 0.032551 -0.009143
						CHANNELS 3 Zrotation Yrotation Xrotation
						JOINT RightForeArm
						{
							OFFSET -0.253742 -0.013329 -0.021401
							CHANNELS 3 Zrotation Yrotation Xrotation
							JOINT RightHand
							{
								OFFSET -0.255298 0.007772 -0.005559
								CHANNELS 3 Zrotation Yrotation Xrotation
								End Site
								{
									OFFSET 0.000000 0.000000 0.000000
								}
							}
						}
					}
				}
			}
		}
	}
}
MOTION
Frames: 8
Frame Time: 0.050000
-0.050796 0.963417 -0.049629 7.089132 58.374901 8.846362 -6.936724 -2.774852 -16.762037 3.526086 -0.566086 4.665820 -30.049245 -22.695615 29.228253 0.000000 0.000000 0.000000 1.341007 0.387827 -12.121391 1.391989 -3.530252 18.217832 -13.960359 -25.863576 13.084156 0.000000 0.000000 0.000000 3.210402 -0.153283 0.520927 -6.955775 1.900023 -0.225321 -6.447403 21.404728 7.567296 10.042004 -4.616998 -6.510735 0.000000 0.000000 0.000000 -5.481697 -7.791478 -3.948848 -60.850738 -4.735561 -9.023818 -9.730144 -25.209412 -0.941444 0.000000 0.000000 0.000000 7.434110 -0.389069 4.968305 73.965829 5.803480 6.830693 -4.301075 25.155482 0.185750 0.000000 0.000000 0.000000 
-0.055846 0.963264 -0.052179 7.999177 60.056993 9.853259 -7.146400 -2.952190 -17.236800 3.440161 -0.528755 4.389018 -30.764882 -22.482327 30.258705 0.000000 0.000000 0.000000 1.095051 0.260959 -12.492301 1.959069 -3.845961 17.924114 -15.293554 -27.710833 14.120137 0.000000 0.000000 0.000000 2.947824 -0.137932 0.410793 -7.037768 1.852266 -0.373634 -6.389377 21.632200 7.965485 10.244875 -4.865974 -6.339268 0.000000 0.000000 0.000000 -4.607943 -8.436739 -3.395758 -61.236859 -5.876913 -9.040567 -12.555659 -26.235770 -0.573353 0.000000 0.000000 0.000000 6.873099 -0.107708 5.045537 74.573181 6.896080 8.197804 -5.237052 25.997940 0.016794 0.000000 0.000000 0.000000 
-0.060725 0.963656 -0.054920 8.244889 61.300914 10.384911 -7.056010 -3.099516 -17.731989 3.127079 -0.480623 4.080692 -31.217877 -21.805551 31.284226 0.000000 0.000000 0.000000 0.981383 0.180199 -12.673615 2.459507 -3.915550 17.039971 -16.291242 -28.864080 15.129253 0.000000 0.000000 0.000000 2.997004 -0.143836 0.396018 -7.090933 1.861531 -0.757254 -6.600059 21.970613 8.146936 10.404543 -5.302738 -5.854242 0.000000 0.000000 0.000000 -4.424123 -9.641341 -3.155777 -61.309168 -6.715652 -8.729126 -15.134693 -27.862817 -0.293461 0.000000 0.000000 0.000000 6.820267 0.505045 5.594944 74.305286 8.614409 9.375955 -5.636953 26.559937 -0.077530 0.000000 0.000000 0.000000 
-0.065382 0.963972 -0.057669 9.021580 63.181574 11.215320 -7.097774 -3.354938 -18.451219 2.782578 -0.502504 4.412573 -31.662066 -21.250682 32.187459 0.000000 0.000000 0.000000 0.792112 0.062684 -12.705794 3.096319 -4.081592 16.077430 -17.368220 -29.904070 16.338811 0.000000 0.000000 0.000000 3.021042 -0.160273 0.673878 -7.218201 1.760156 -0.593030 -6.850669 22.183320 7.886873 9.966948 -5.379787 -5.268248 0.000000 0.000000 0.000000 -3.548981 -10.345844 -2.542018 -61.680220 -8.480027 -8.475867 -18.666811 -29.266666 0.203083 0.000000 0.000000 0.000000 6.787265 0.757245 5.932346 73.828243 9.823542 10.223866 -5.813879 27.222966 -0.111647 0.000000 0.000000 0.000000 
-0.069613 0.964426 -0.060436 9.440223 64.458426 11.740681 -7.087835 -3.579965 -19.078968 2.641387 -0.540536 4.803029 -31.823851 -20.949019 32.549224 0.000000 0.000000 0.000000 0.834580 0.021562 -12.664827 3.361895 -4.060831 15.237499 -17.877779 -30.308243 16.939621 0.000000 0.000000 0.000000 3.319758 -0.192832 0.917826 -7.287603 1.735697 -0.760421 -6.934587 23.116734 8.122029 10.478482 -5.819796 -5.260171 0.000000 0.000000 0.000000 -3.457318 -11.094513 -2.570432 -61.888046 -9.189845 -8.380963 -22.127374 -31.092592 0.652971 0.000000 0.000000 0.000000 6.989486 1.022898 6.481205 72.229318 11.559172 10.886052 -5.101677 28.224648 0.039426 0.000000 0.000000 0.000000 
-0.073267 0.964806 -0.063188 10.248185 66.228521 12.499196 -7.607490 -3.993949 -19.890472 3.239065 -0.674688 5.704407 -32.303075 -20.955072 33.120609 0.000000 0.000000 0.000000 0.703651 -0.098388 -12.709502 3.843028 -4.342373 14.878515 -18.579489 -30.910528 17.646976 0.000000 0.000000 0.000000 3.470537 -0.244779 1.640679 -7.129801 1.628903 -0.998022 -7.181058 23.820283 8.121662 10.858941 -6.271521 -5.140828 0.000000 0.000000 0.000000 -3.063647 -11.752201 -2.443458 -62.066136 -10.162461 -8.268693 -25.684366 -31.811980 1.095603 0.000000 0.000000 0.000000 7.085766 1.462225 7.131364 70.588170 13.005048 11.343963 -4.692412 28.580974 0.069469 0.000000 0.000000 0.000000 
-0.076249 0.965338 -0.065780 11.082741 67.553559 13.192408 -7.950390 -4.202582 -20.206345 3.345669 -0.789400 6.494568 -32.643427 -21.443397 33.174280 0.000000 0.000000 0.000000 0.579059 -0.174615 -12.522621 4.006805 -4.461339 14.611119 -18.889972 -30.995898 18.154125 0.000000 0.000000 0.000000 3.370299 -0.267015 2.137631 -6.982068 1.592926 -1.389706 -6.756753 24.660136 8.519787 11.462345 -6.579556 -5.441230 0.000000 0.000000 0.000000 -2.812533 -12.134949 -2.502758 -62.216449 -10.417359 -8.456953 -28.614417 -32.514373 1.440336 0.000000 0.000000 0.000000 7.186223 1.808138 7.709305 68.717968 14.306496 11.535632 -4.104623 28.868140 0.135923 0.000000 0.000000 0.000000 
-0.078501 0.965544 -0.067993 11.760758 68.762020 13.858479 -8.199258 -4.410389 -20.563126 3.878457 -0.906265 7.051654 -33.140632 -21.922758 33.495258 0.000000 0.000000 0.000000 0.455039 -0.253179 -12.436096 4.075951 -4.536642 14.373779 -19.189509 -31.087872 18.602717 0.000000 0.000000 0.000000 3.340328 -0.298133 2.607330 -6.537554 1.411644 -1.396089 -7.041409 25.256320 8.406888 11.695229 -7.146692 -5.022096 0.000000 0.000000 0.000000 -2.906784 -12.312992 -2.786926 -62.027105 -9.845249 -8.684885 -30.636739 -32.637656 1.605274 0.000000 0.000000 0.000000 7.199102 2.698937 8.568693 67.237356 16.149162 12.161209 -4.636625 28.576767 -0.109716 0.000000 0.000000 0.000000 
